<svg width="229" height="146" viewBox="0 0 229 146" fill="none" xmlns="http://www.w3.org/2000/svg">
<g clip-path="url(#clip0_333_223)">
<g clip-path="url(#clip1_333_223)">
<g clip-path="url(#clip2_333_223)">
<g clip-path="url(#clip3_333_223)">
<g clip-path="url(#clip4_333_223)">
<g clip-path="url(#clip5_333_223)">
<g clip-path="url(#clip6_333_223)">
<g clip-path="url(#clip7_333_223)">
<g clip-path="url(#clip8_333_223)">
<g clip-path="url(#clip9_333_223)">
<path d="M50.9107 80.9515C49.4439 80.9515 48.1077 80.7501 46.9021 80.3474C45.6965 79.9488 44.6817 79.4208 43.8579 78.7633L45.3046 76.2977C46.028 76.9141 46.8418 77.4175 47.746 77.8079C48.6502 78.1983 49.7051 78.3935 50.9107 78.3935C52.3574 78.3935 53.5027 78.0853 54.3467 77.4689C55.1906 76.8525 55.6125 76.0204 55.6125 74.9725C55.6125 74.3767 55.492 73.8466 55.2509 73.3822C55.0097 72.922 54.5416 72.47 53.8463 72.0262C53.1551 71.5865 52.1364 71.1098 50.7901 70.5961C49.3434 70.0208 48.188 69.4394 47.324 68.8518C46.46 68.2682 45.8411 67.6005 45.4674 66.8485C45.0977 66.1006 44.9128 65.213 44.9128 64.1857C44.9128 63.1584 45.1901 62.2276 45.7447 61.3934C46.2952 60.5634 47.109 59.8956 48.186 59.3902C49.259 58.8888 50.5591 58.6382 52.0861 58.6382C53.3319 58.6382 54.4531 58.7656 55.4498 59.0203C56.4424 59.2792 57.4109 59.645 58.3553 60.1175L57.3004 62.6139C56.6172 62.203 55.8195 61.8578 54.9073 61.5784C53.991 61.303 53.0305 61.1654 52.0259 61.1654C50.6997 61.1654 49.6549 61.4325 48.8913 61.9667C48.1278 62.5009 47.746 63.1892 47.746 64.0316C47.746 64.5658 47.8565 65.0384 48.0775 65.4493C48.2985 65.8602 48.7366 66.2609 49.3916 66.6512C50.0427 67.0416 51.0212 67.4834 52.3273 67.9765C53.8946 68.5723 55.1363 69.199 56.0526 69.8565C56.9648 70.514 57.6118 71.2269 57.9936 71.9953C58.3754 72.7679 58.5663 73.6473 58.5663 74.6335C58.5663 75.969 58.2408 77.1093 57.5897 78.0545C56.9347 78.9996 56.0305 79.7187 54.8771 80.2118C53.7197 80.7049 52.3976 80.9515 50.9107 80.9515ZM65.1971 80.5816H62.4845V64.5555H65.1067V67.2368C65.6693 66.3739 66.3826 65.6486 67.2466 65.061C68.1106 64.4774 69.0952 64.1857 70.2003 64.1857C71.4461 64.1857 72.4649 64.4939 73.2565 65.1103C74.0522 65.7267 74.6108 66.5485 74.9323 67.5758C75.5552 66.6307 76.2926 65.8294 77.1446 65.1719C78.0006 64.5144 79.0615 64.1857 80.3274 64.1857C82.0353 64.1857 83.3052 64.7343 84.1371 65.8314C84.973 66.9327 85.3909 68.3669 85.3909 70.1338V80.5816H82.6783V70.3496C82.6783 69.2401 82.4272 68.3402 81.9248 67.6498C81.4225 66.9636 80.7293 66.6204 79.8452 66.6204C78.941 66.6204 78.1011 66.9636 77.3254 67.6498C76.5539 68.3402 75.8767 69.1476 75.294 70.0722V80.5816H72.5814V70.3496C72.5814 69.2401 72.3302 68.3402 71.8279 67.6498C71.3256 66.9636 70.6323 66.6204 69.7482 66.6204C68.8641 66.6204 68.0302 66.9533 67.2466 67.619C66.463 68.2888 65.7798 69.0757 65.1971 69.9797V80.5816ZM96.0605 80.9515C94.7544 80.9515 93.5689 80.6125 92.504 79.9344C91.439 79.2564 90.5891 78.2948 89.9541 77.0497C89.3232 75.8087 89.0077 74.3458 89.0077 72.661C89.0077 71.0584 89.3232 69.6202 89.9541 68.3463C90.5891 67.0724 91.4632 66.0595 92.5763 65.3075C93.6935 64.5596 94.9755 64.1857 96.4222 64.1857C97.3264 64.1857 98.1442 64.3439 98.8756 64.6603C99.611 64.9808 100.25 65.3774 100.793 65.8499V64.5555H103.264V76.6984C103.264 77.4792 103.449 77.9867 103.819 78.2209C104.192 78.4592 104.6 78.5784 105.042 78.5784L104.47 80.7357C102.541 80.7357 101.375 79.9344 100.973 78.3318C100.511 78.9893 99.8823 79.5893 99.0866 80.1317C98.2949 80.6782 97.2862 80.9515 96.0605 80.9515ZM96.6633 78.4859C97.4269 78.4859 98.1502 78.2948 98.8334 77.9127C99.5166 77.5346 100.089 77.058 100.551 76.4827V67.884C100.009 67.4936 99.4101 67.1793 98.755 66.9409C98.104 66.7067 97.4168 66.5896 96.6935 66.5896C95.729 66.5896 94.879 66.8403 94.1436 67.3416C93.4122 67.847 92.8355 68.5477 92.4136 69.4435C91.9916 70.3352 91.7806 71.3769 91.7806 72.5686C91.7806 73.7192 91.9916 74.7403 92.4136 75.632C92.8355 76.5279 93.4182 77.2264 94.1617 77.7278C94.9051 78.2332 95.739 78.4859 96.6633 78.4859ZM111.366 80.5816H108.653V64.5555H111.275V68.0381C111.536 67.3601 111.888 66.7273 112.33 66.1396C112.772 65.5561 113.325 65.0836 113.988 64.7219C114.651 64.3644 115.425 64.1857 116.309 64.1857C116.61 64.1857 116.911 64.2001 117.213 64.2288C117.514 64.2617 117.765 64.309 117.966 64.3706L117.153 67.2368C116.771 67.0724 116.319 66.9903 115.796 66.9903C115.053 66.9903 114.345 67.206 113.674 67.6375C112.999 68.0689 112.447 68.7367 112.017 69.6407C111.583 70.5448 111.366 71.6954 111.366 73.0925V80.5816ZM126.767 80.9515C125.26 80.9515 124.071 80.4419 123.199 79.4228C122.323 78.4078 121.885 76.9552 121.885 75.065V67.545H119.172V65.1411H121.945L122.517 60.0867H124.597V65.1411H128.937V67.545H124.597V75.2807C124.597 76.4724 124.844 77.3045 125.339 77.7771C125.829 78.2496 126.416 78.4859 127.099 78.4859C127.601 78.4859 128.079 78.4037 128.533 78.2394C128.984 78.075 129.399 77.8798 129.781 77.6538L130.535 79.8728C130.133 80.1194 129.59 80.3618 128.907 80.6001C128.224 80.8344 127.511 80.9515 126.767 80.9515ZM142.289 80.9515C140.722 80.9515 139.326 80.6577 138.1 80.07C136.874 79.4865 135.833 78.6852 134.977 77.6661C134.125 76.6511 133.472 75.4656 133.018 74.1096C132.568 72.7535 132.343 71.305 132.343 69.764C132.343 67.6477 132.739 65.7513 133.531 64.0747C134.326 62.4023 135.468 61.077 136.955 60.099C138.441 59.1251 140.22 58.6382 142.289 58.6382C143.837 58.6382 145.227 58.9258 146.461 59.5011C147.699 60.0764 148.749 60.8777 149.613 61.905C150.477 62.9324 151.134 64.1138 151.585 65.4493C152.039 66.7848 152.266 68.223 152.266 69.764C152.266 71.305 152.039 72.7535 151.585 74.1096C151.134 75.4656 150.477 76.6511 149.613 77.6661C148.749 78.6852 147.705 79.4865 146.479 80.07C145.253 80.6577 143.857 80.9515 142.289 80.9515ZM142.289 78.4243C143.837 78.4243 145.133 78.0442 146.177 77.284C147.222 76.5238 148.01 75.4903 148.54 74.1835C149.075 72.8809 149.342 71.4077 149.342 69.764C149.342 68.6545 149.181 67.5861 148.86 66.5588C148.538 65.5315 148.076 64.611 147.473 63.7974C146.871 62.9878 146.131 62.3468 145.255 61.8742C144.383 61.4017 143.394 61.1654 142.289 61.1654C140.823 61.1654 139.561 61.5455 138.504 62.3057C137.451 63.0659 136.647 64.0932 136.093 65.3876C135.542 66.6821 135.267 68.1409 135.267 69.764C135.267 70.8735 135.421 71.946 135.731 72.9816C136.044 74.0212 136.502 74.952 137.105 75.7738C137.708 76.5957 138.445 77.2429 139.318 77.7154C140.194 78.188 141.184 78.4243 142.289 78.4243ZM159.469 87.3619H156.757V68.6545C156.757 67.9559 156.59 67.4567 156.256 67.1567C155.927 66.8608 155.501 66.7129 154.978 66.7129L155.551 64.5555C157.4 64.5555 158.555 65.3055 159.017 66.8053C159.218 66.4971 159.544 66.1376 159.994 65.7267C160.448 65.3157 161.01 64.9562 161.681 64.648C162.357 64.3398 163.126 64.1857 163.99 64.1857C165.196 64.1857 166.325 64.5083 167.378 65.1534C168.435 65.8027 169.285 66.7375 169.928 67.958C170.571 69.1826 170.892 70.6681 170.892 72.4145C170.892 74.1198 170.571 75.6136 169.928 76.8956C169.285 78.1818 168.445 79.1783 167.408 79.8851C166.375 80.596 165.256 80.9515 164.05 80.9515C163.126 80.9515 162.262 80.7604 161.458 80.3782C160.655 80.0002 159.992 79.5646 159.469 79.0715V87.3619ZM163.508 78.4859C164.874 78.4859 165.983 77.9353 166.835 76.834C167.691 75.7368 168.119 74.2945 168.119 72.5069C168.119 71.2742 167.902 70.216 167.468 69.3325C167.038 68.449 166.466 67.771 165.75 67.2985C165.039 66.8259 164.251 66.5896 163.387 66.5896C162.523 66.5896 161.744 66.8095 161.049 67.2491C160.357 67.6929 159.831 68.1717 159.469 68.6853V76.5751C159.992 77.1299 160.594 77.586 161.278 77.9435C161.961 78.3051 162.704 78.4859 163.508 78.4859ZM178.873 80.9515C177.688 80.9515 176.619 80.7974 175.666 80.4892C174.71 80.181 173.92 79.7803 173.297 79.2872L174.443 76.9758C174.965 77.4278 175.624 77.8017 176.42 78.0976C177.212 78.3976 178.06 78.5476 178.964 78.5476C180.089 78.5476 180.939 78.3565 181.514 77.9743C182.084 77.5963 182.37 77.1093 182.37 76.5135C182.37 76.082 182.265 75.7019 182.056 75.3732C181.843 75.0444 181.455 74.7198 180.893 74.3993C180.33 74.0828 179.516 73.7397 178.451 73.3699C176.985 72.8562 175.885 72.244 175.154 71.5331C174.419 70.8263 174.051 69.8462 174.051 68.5929C174.051 67.3601 174.579 66.3163 175.636 65.4616C176.689 64.611 178.15 64.1857 180.019 64.1857C181.023 64.1857 181.918 64.2925 182.701 64.5062C183.485 64.724 184.188 64.9973 184.811 65.326L184.057 67.6067C183.515 67.2779 182.898 67.0108 182.207 66.8053C181.512 66.5999 180.742 66.4971 179.898 66.4971C178.853 66.4971 178.06 66.7129 177.517 67.1444C176.975 67.5758 176.703 68.0484 176.703 68.5621C176.703 69.0552 176.914 69.4764 177.336 69.8257C177.758 70.1749 178.582 70.555 179.808 70.966C181.797 71.644 183.183 72.3939 183.967 73.2158C184.751 74.0376 185.143 75.065 185.143 76.2977C185.143 77.736 184.576 78.8701 183.443 79.7002C182.305 80.5344 180.782 80.9515 178.873 80.9515Z" fill="white"/>
</g>
</g>
</g>
</g>
</g>
</g>
</g>
<path d="M142.279 -0.059082C181.739 -0.059082 213.728 32.6508 213.728 73C213.728 113.349 181.739 146.059 142.279 146.059C108.807 146.059 80.7105 122.523 72.9546 90.7523H74.261C81.9874 121.8 109.511 144.764 142.279 144.764C181.04 144.764 212.461 112.634 212.461 73C212.461 33.3661 181.04 1.236 142.279 1.236C109.511 1.236 81.988 24.1994 74.261 55.2477H72.9546C80.7105 23.4771 108.807 -0.059082 142.279 -0.059082Z" fill="white"/>
</g>
</g>
</g>
<defs>
<clipPath id="clip0_333_223">
<rect width="229" height="146" fill="white"/>
</clipPath>
<clipPath id="clip1_333_223">
<rect width="228.635" height="146.118" fill="white" transform="translate(0.182129 -0.059082)"/>
</clipPath>
<clipPath id="clip2_333_223">
<rect width="228.635" height="146.118" fill="white" transform="translate(0.182129 -0.059082)"/>
</clipPath>
<clipPath id="clip3_333_223">
<rect width="141.297" height="28.7237" fill="white" transform="translate(43.8516 58.6382)"/>
</clipPath>
<clipPath id="clip4_333_223">
<rect width="141.297" height="28.7237" fill="white" transform="translate(43.8516 58.6382)"/>
</clipPath>
<clipPath id="clip5_333_223">
<rect width="141.297" height="28.7237" fill="white" transform="translate(43.8516 58.6382)"/>
</clipPath>
<clipPath id="clip6_333_223">
<rect width="141.297" height="28.7237" fill="white" transform="translate(43.8516 58.6382)"/>
</clipPath>
<clipPath id="clip7_333_223">
<rect width="141.297" height="28.7237" fill="white" transform="translate(43.8516 58.6382)"/>
</clipPath>
<clipPath id="clip8_333_223">
<rect width="141.297" height="28.7237" fill="white" transform="translate(43.8516 58.6382)"/>
</clipPath>
<clipPath id="clip9_333_223">
<rect width="141.297" height="28.7237" fill="white" transform="translate(43.8516 58.6382)"/>
</clipPath>
</defs>
</svg>
